<svg width="24" height="24" viewBox="0 0 24 24" fill="none" xmlns="http://www.w3.org/2000/svg">
<path d="M14.5448 10.1432C13.0468 11.9238 11.5761 13.7345 10.1381 15.5771C9.03303 16.9963 7.9468 18.423 6.87774 19.8855C6.72673 19.6653 6.57572 19.4451 6.41956 19.2305C5.96482 18.5868 5.47919 17.9694 4.98327 17.3577C4.48048 16.7535 3.95882 16.1625 3.4097 15.596C3.13514 15.3117 2.85371 15.0332 2.56199 14.7603C2.41785 14.6229 2.26684 14.4892 2.11411 14.3537L1.87902 14.1523C1.79494 14.0827 1.7263 14.0243 1.60961 13.9358L0 16.6858C0.032604 16.7046 0.11154 16.7573 0.1716 16.8006L0.370656 16.9436C0.504505 17.0415 0.640069 17.1431 0.773917 17.2504C1.04333 17.4612 1.31103 17.6833 1.57357 17.9129C2.1021 18.3722 2.61519 18.8616 3.11626 19.3698C3.61218 19.8855 4.10296 20.4106 4.568 20.964C5.0399 21.5117 5.48777 22.0858 5.92879 22.6693L6.93951 24L7.74775 22.6429C8.93179 20.6572 10.1879 18.6715 11.4612 16.7215C12.7396 14.7697 14.0523 12.8442 15.3977 10.9431C16.7379 9.03835 18.1347 7.18061 19.5573 5.34546C20.9833 3.5122 22.471 1.73916 24 0C22.3423 1.5867 20.7156 3.22234 19.1454 4.92385C17.5787 6.62725 16.0326 8.35887 14.5397 10.1432H14.5448Z" fill="#000106"/>
</svg>
