<svg width="247" height="99" viewBox="0 0 247 99" fill="none" xmlns="http://www.w3.org/2000/svg">
<path d="M208.814 49.0997H205.2L207.006 44.1981L208.813 49.0997H208.814ZM210.904 54.9028L212.179 58.3988H218.876L208.885 33.1699H205.271L195.138 58.3988H201.834L203.11 54.9028H210.905H210.904ZM191.17 58.3988L184.9 48.4158C184.026 46.9982 183.151 46.0369 182.278 45.5327C183.176 44.8838 184.038 43.9953 184.865 42.8653L190.923 33.1699H184.156L179.196 41.0634C178.794 41.6883 178.417 42.115 178.062 42.3427C177.707 42.5713 177.223 42.6846 176.609 42.6846H175.298V33.1699H169.275V58.3988H175.298V48.5955H176.645C177.259 48.5955 177.743 48.7098 178.097 48.9375C178.452 49.1661 178.83 49.5919 179.231 50.2168L184.368 58.3979H191.17V58.3988ZM161.411 33.1699H157.797L147.522 47.0461V33.1699H141.499V58.3988H145.113L155.387 44.5225V58.3988H161.411V33.1689V33.1699ZM121.908 38.9361H124.707C126.077 38.9361 127.246 39.3029 128.214 40.0357C129.183 40.7684 129.667 41.7961 129.667 43.1169C129.667 44.4377 129.188 45.5198 128.232 46.2166C127.275 46.9134 126.1 47.2618 124.707 47.2618H121.908V38.9361ZM115.885 58.3988H121.908V53.0649H124.246C127.742 53.0649 130.47 52.1164 132.43 50.2177C134.39 48.3199 135.371 45.953 135.371 43.1178C135.371 40.2827 134.39 37.9157 132.43 36.0179C130.469 34.1201 127.742 33.1708 124.246 33.1708H115.885V58.3997V58.3988ZM96.0098 47.8748H100.97C102.835 47.8748 103.769 48.6674 103.769 50.2537C103.769 51.8399 102.835 52.5967 100.97 52.5967H96.0098V47.8748ZM96.0098 38.937H107.029V33.1708H89.9875V58.3997H100.865C103.699 58.3997 105.842 57.6605 107.295 56.183C108.748 54.7055 109.474 52.7294 109.474 50.2537C109.474 47.778 108.748 45.7668 107.295 44.2893C105.843 42.8118 103.7 42.0726 100.865 42.0726H96.0107V38.937H96.0098ZM74.8589 49.1006H71.2448L73.0514 44.199L74.858 49.1006H74.8589ZM76.9497 54.9037L78.2255 58.3997H84.922L74.9306 33.1708H71.3166L61.1836 58.3997H67.88L69.1559 54.9037H76.9506H76.9497Z" fill="white"/>
<path d="M227.586 81.4051H219.287L223.437 71.1723L227.586 81.4051ZM228.505 83.9199L231.089 90.3287H234.015L224.186 66.2107H222.689L212.826 90.3287H215.752L218.336 83.9199H228.506H228.505ZM207.112 66.2107H205.615L195.582 79.1653L185.549 66.2107H184.053V90.3287H186.705V71.3793L195.582 82.8177L204.459 71.3793V90.3287H207.112V66.2107ZM175.21 78.2692C175.21 81.0489 174.292 83.3744 172.456 85.2459C170.619 87.1182 168.374 88.0535 165.721 88.0535C163.069 88.0535 160.829 87.1182 159.004 85.2459C157.178 83.3744 156.266 81.0489 156.266 78.2692C156.266 75.4896 157.178 73.165 159.004 71.2926C160.829 69.4212 163.069 68.485 165.721 68.485C168.374 68.485 170.619 69.4212 172.456 71.2926C174.292 73.165 175.21 75.4905 175.21 78.2692ZM153.613 78.2692C153.613 81.669 154.793 84.5689 157.151 86.969C159.509 89.3692 162.365 90.5692 165.721 90.5692C169.077 90.5692 171.939 89.3692 174.309 86.969C176.679 84.5689 177.863 81.669 177.863 78.2692C177.863 74.8695 176.678 71.9705 174.309 69.5694C171.94 67.1693 169.077 65.9692 165.721 65.9692C162.365 65.9692 159.508 67.1702 157.151 69.5694C154.793 71.9696 153.613 74.8695 153.613 78.2692ZM133.309 68.7256H138.343C140.565 68.7256 142.407 69.2599 143.869 70.3275C145.332 71.3952 146.063 72.9748 146.063 75.0653C146.063 77.1559 145.332 78.7634 143.869 79.8199C142.407 80.8764 140.564 81.4051 138.343 81.4051H133.309V68.7265V68.7256ZM130.656 90.3277H133.309V83.919H138.173C141.256 83.919 143.762 83.1264 145.689 81.5422C147.616 79.957 148.58 77.7983 148.58 75.0653C148.58 72.3323 147.617 70.1727 145.689 68.5876C143.762 67.0024 141.256 66.2107 138.173 66.2107H130.656V90.3287V90.3277ZM122.97 66.2098H105.115V90.3277H107.768V68.7256H120.317V90.3277H122.97V66.2098ZM99.673 68.7246V66.2098H84.8442V90.3277H87.497V68.7256H99.673V68.7246ZM66.1725 68.7246H78.5869V66.2098H63.5197V90.3277H78.5869V87.8129H66.1725V79.4059H77.8385V76.8911H66.1725V68.7256V68.7246ZM54.847 90.3268H57.7723L47.9435 66.2089H46.4468L36.584 90.3268H39.5092L47.162 71.2395L54.8489 90.3268H54.847Z" fill="white"/>
<path d="M34.2781 51.7664C32.6954 50.146 31.9045 48.0704 31.9045 45.5369C31.9045 43.0033 32.6954 40.9194 34.2781 39.2794C35.8598 37.6412 37.8287 36.8212 40.1839 36.8212C42.5391 36.8212 44.5172 37.6412 46.1173 39.2794C47.7184 40.9184 48.5185 43.0043 48.5185 45.5369C48.5185 48.0695 47.7267 50.146 46.1449 51.7664C44.5622 53.3869 42.5749 54.1967 40.183 54.1967C37.791 54.1967 35.8589 53.3869 34.2772 51.7664M9.98988 51.7664C8.4072 50.146 7.61633 48.0704 7.61633 45.5369C7.61633 43.0033 8.4072 40.9194 9.98988 39.2794C11.5716 37.6412 13.5405 36.8212 15.8957 36.8212C18.2509 36.8212 20.229 37.6412 21.83 39.2794C23.4311 40.9184 24.2312 43.0043 24.2312 45.5369C24.2312 48.0695 23.4394 50.146 21.8576 51.7664C20.275 53.3869 18.2876 54.1967 15.8966 54.1967C13.5056 54.1967 11.5726 53.3869 9.9908 51.7664M31.8493 33.7497V27.4922H24.2321V33.7497C22.0609 30.9565 19.0436 29.5595 15.1793 29.5595C10.6161 29.5595 6.945 31.0775 4.16682 34.1127C1.38863 37.1489 0 40.9566 0 45.5378C0 50.119 1.38863 53.9277 4.16774 56.9629C6.94592 59.999 10.6161 61.5161 15.1802 61.5161C19.0068 61.5161 22.025 60.1191 24.233 57.3259V66.5999H31.8503V57.3259C34.0583 60.1191 37.094 61.5161 40.9582 61.5161C45.5205 61.5161 49.1916 59.999 51.9707 56.9629C54.7489 53.9277 56.1385 50.119 56.1385 45.5378C56.1385 40.9566 54.7489 37.1489 51.9707 34.1127C49.1916 31.0775 45.5214 29.5595 40.9582 29.5595C37.094 29.5595 34.0583 30.9565 31.8503 33.7497" fill="white"/>
<path d="M165.892 4.15486C165.816 4.15486 164.631 4.10895 164.631 10.4191C164.631 12.2186 164.641 15.3475 164.703 16.9872C164.749 18.2009 164.894 20.1565 164.906 21.8394C165.021 38.0513 165.017 65.8497 165.017 69.6708C165.017 75.1831 165.804 78.8188 165.888 79.1824V79.2155C165.888 79.2155 165.89 79.209 165.892 79.1989C165.895 79.209 165.896 79.2155 165.896 79.2155V79.1824C165.981 78.8198 166.768 75.1841 166.768 69.6708C166.768 65.8479 166.765 38.0247 166.879 21.8082C166.891 20.1207 167.036 18.1606 167.082 16.9441C167.143 15.3153 167.154 12.214 167.154 10.4182C167.154 4.10803 165.97 4.15394 165.892 4.15394" fill="white"/>
<path d="M165.893 7.30786C166.379 7.30786 166.523 9.92023 166.523 12.4902C166.523 15.0602 166.37 19.2925 165.893 19.2925C165.415 19.2925 165.262 15.0602 165.262 12.4902C165.262 9.92023 165.406 7.30786 165.893 7.30786Z" fill="#000106"/>
<path d="M164.822 14.9877C164.822 14.9877 169.749 15.7707 172.86 12.2884C175.813 8.98301 173.143 -0.419161 164.608 1.18195C155.45 2.90007 151.806 21.7514 175.353 21.5819C189.759 21.4787 215.377 21.6934 215.358 21.5165C215.338 21.3396 246 97.5077 246 97.5077H27.7539V64.3431" stroke="white"/>
</svg>
